<svg width="148" height="32" viewBox="0 0 148 32" fill="none" xmlns="http://www.w3.org/2000/svg">
<path fill-rule="evenodd" clip-rule="evenodd" d="M13.6858 29.6857C21.2442 29.6857 27.3715 23.5584 27.3715 16C27.3715 8.44153 21.2442 2.31421 13.6858 2.31421C6.12732 2.31421 0 8.44153 0 16C0 23.5584 6.12732 29.6857 13.6858 29.6857ZM15.5322 13.3007C14.051 10.6862 13.6857 5.24476 13.6857 5.24476C13.6857 5.24476 13.3204 10.6862 11.8393 13.3007C11.0315 14.7266 9.05634 15.9999 9.05634 15.9999C9.05634 15.9999 11.0315 17.2732 11.8393 18.6991C13.3204 21.3136 13.6857 26.7551 13.6857 26.7551C13.6857 26.7551 14.051 21.3136 15.5322 18.6991C16.34 17.2732 18.3152 15.9999 18.3152 15.9999C18.3152 15.9999 16.34 14.7266 15.5322 13.3007Z" fill="#000011"/>
<path d="M49.9574 7.69531L42.0004 23.9023C41.8754 24.1523 41.6879 24.3516 41.4379 24.5C41.1957 24.6562 40.9261 24.7344 40.6293 24.7344C40.3402 24.7344 40.0707 24.6562 39.8207 24.5C39.5785 24.3516 39.391 24.1523 39.2582 23.9023L31.3129 7.69531H34.723L40.6293 19.8008L46.559 7.69531H49.9574ZM64.1254 16.0273C64.1254 16.4492 64.0511 16.9062 63.9027 17.3984C63.7543 17.8828 63.5121 18.3359 63.1761 18.7578C62.848 19.1719 62.4144 19.5195 61.8754 19.8008C61.3441 20.082 60.6957 20.2227 59.9301 20.2227H54.434V17.3281H59.9301C60.3441 17.3281 60.6644 17.2031 60.891 16.9531C61.1176 16.6953 61.2308 16.3789 61.2308 16.0039C61.2308 15.6055 61.1019 15.293 60.8441 15.0664C60.5941 14.8398 60.2894 14.7266 59.9301 14.7266H54.434C54.0199 14.7266 53.6996 14.8555 53.473 15.1133C53.2465 15.3633 53.1332 15.6758 53.1332 16.0508V20.3047C53.1332 20.7109 53.2582 21.0273 53.5082 21.2539C53.766 21.4805 54.0824 21.5938 54.4574 21.5938H59.9301V24.5H54.434C54.0121 24.5 53.5551 24.4258 53.0629 24.2773C52.5785 24.1289 52.1254 23.8906 51.7035 23.5625C51.2894 23.2266 50.9418 22.793 50.6605 22.2617C50.3793 21.7227 50.2386 21.0703 50.2386 20.3047V16.0273C50.2386 15.6055 50.3129 15.1523 50.4613 14.668C50.6097 14.1758 50.848 13.7227 51.1761 13.3086C51.5121 12.8867 51.9457 12.5352 52.4769 12.2539C53.016 11.9727 53.6683 11.832 54.434 11.832H59.9301C60.3519 11.832 60.8051 11.9062 61.2894 12.0547C61.7816 12.2031 62.2347 12.4453 62.6488 12.7812C63.0707 13.1094 63.4222 13.543 63.7035 14.082C63.9847 14.6133 64.1254 15.2617 64.1254 16.0273ZM79.8051 16.0273C79.8051 16.4492 79.7308 16.9062 79.5824 17.3984C79.434 17.8828 79.1918 18.3359 78.8558 18.7578C78.5277 19.1719 78.0941 19.5195 77.5551 19.8008C77.0238 20.082 76.3754 20.2227 75.6097 20.2227H70.1136V17.3281H75.6097C76.0238 17.3281 76.3441 17.2031 76.5707 16.9531C76.7972 16.6953 76.9105 16.3789 76.9105 16.0039C76.9105 15.6055 76.7816 15.293 76.5238 15.0664C76.2738 14.8398 75.9691 14.7266 75.6097 14.7266H70.1136C69.6996 14.7266 69.3793 14.8555 69.1527 15.1133C68.9261 15.3633 68.8129 15.6758 68.8129 16.0508V20.3047C68.8129 20.7109 68.9379 21.0273 69.1879 21.2539C69.4457 21.4805 69.7621 21.5938 70.1371 21.5938H75.6097V24.5H70.1136C69.6918 24.5 69.2347 24.4258 68.7426 24.2773C68.2582 24.1289 67.8051 23.8906 67.3832 23.5625C66.9691 23.2266 66.6215 22.793 66.3402 22.2617C66.059 21.7227 65.9183 21.0703 65.9183 20.3047V16.0273C65.9183 15.6055 65.9926 15.1523 66.141 14.668C66.2894 14.1758 66.5277 13.7227 66.8558 13.3086C67.1918 12.8867 67.6254 12.5352 68.1566 12.2539C68.6957 11.9727 69.348 11.832 70.1136 11.832H75.6097C76.0316 11.832 76.4847 11.9062 76.9691 12.0547C77.4613 12.2031 77.9144 12.4453 78.3285 12.7812C78.7504 13.1094 79.1019 13.543 79.3832 14.082C79.6644 14.6133 79.8051 15.2617 79.8051 16.0273ZM95.7543 20.2227C95.7543 20.7461 95.6879 21.2188 95.5551 21.6406C95.4222 22.0547 95.2465 22.4219 95.0277 22.7422C94.809 23.0547 94.5551 23.3242 94.266 23.5508C93.9769 23.7695 93.6722 23.9492 93.3519 24.0898C93.0394 24.2305 92.7191 24.3359 92.391 24.4062C92.0707 24.4688 91.766 24.5 91.4769 24.5H85.9808C85.4574 24.5 84.9886 24.4336 84.5746 24.3008C84.1605 24.168 83.7933 23.9922 83.473 23.7734C83.1605 23.5469 82.891 23.2891 82.6644 23C82.4457 22.7109 82.266 22.4102 82.1254 22.0977C81.9847 21.7773 81.8793 21.457 81.809 21.1367C81.7465 20.8086 81.7152 20.5039 81.7152 20.2227V16.0977C81.7152 15.3164 81.8558 14.6562 82.1371 14.1172C82.4261 13.5703 82.7816 13.1289 83.2035 12.793C83.6332 12.4492 84.098 12.2031 84.598 12.0547C85.098 11.9062 85.559 11.832 85.9808 11.832H91.4769V14.8789H86.0043C85.598 14.8789 85.2894 14.9844 85.0785 15.1953C84.8676 15.3984 84.7621 15.6992 84.7621 16.0977V20.1992C84.7621 20.6133 84.8636 20.9258 85.0668 21.1367C85.2777 21.3477 85.5824 21.4531 85.9808 21.4531H91.4769C91.891 21.4531 92.1996 21.3477 92.4027 21.1367C92.6058 20.9258 92.7074 20.6211 92.7074 20.2227V6.47656H95.7543V20.2227ZM115.793 23.1992C115.793 23.418 115.75 23.6211 115.664 23.8086C115.586 23.9961 115.477 24.1602 115.336 24.3008C115.203 24.4336 115.043 24.5391 114.856 24.6172C114.668 24.6953 114.469 24.7344 114.258 24.7344C114.071 24.7344 113.879 24.6992 113.684 24.6289C113.496 24.5586 113.328 24.4453 113.18 24.2891L102.047 12.6641V24.5H99.0004V8.99609C99.0004 8.68359 99.0863 8.40234 99.2582 8.15234C99.4379 7.89453 99.6644 7.70313 99.9379 7.57812C100.227 7.46094 100.524 7.43359 100.828 7.49609C101.133 7.55078 101.395 7.69141 101.614 7.91797L112.746 19.5312V7.69531H115.793V23.1992ZM132.539 16.0273C132.539 16.4492 132.465 16.9062 132.317 17.3984C132.168 17.8828 131.926 18.3359 131.59 18.7578C131.262 19.1719 130.828 19.5195 130.289 19.8008C129.758 20.082 129.11 20.2227 128.344 20.2227H122.848V17.3281H128.344C128.758 17.3281 129.078 17.2031 129.305 16.9531C129.532 16.6953 129.645 16.3789 129.645 16.0039C129.645 15.6055 129.516 15.293 129.258 15.0664C129.008 14.8398 128.703 14.7266 128.344 14.7266H122.848C122.434 14.7266 122.114 14.8555 121.887 15.1133C121.661 15.3633 121.547 15.6758 121.547 16.0508V20.3047C121.547 20.7109 121.672 21.0273 121.922 21.2539C122.18 21.4805 122.496 21.5938 122.871 21.5938H128.344V24.5H122.848C122.426 24.5 121.969 24.4258 121.477 24.2773C120.993 24.1289 120.539 23.8906 120.118 23.5625C119.703 23.2266 119.356 22.793 119.075 22.2617C118.793 21.7227 118.653 21.0703 118.653 20.3047V16.0273C118.653 15.6055 118.727 15.1523 118.875 14.668C119.024 14.1758 119.262 13.7227 119.59 13.3086C119.926 12.8867 120.36 12.5352 120.891 12.2539C121.43 11.9727 122.082 11.832 122.848 11.832H128.344C128.766 11.832 129.219 11.9062 129.703 12.0547C130.196 12.2031 130.649 12.4453 131.063 12.7812C131.485 13.1094 131.836 13.543 132.118 14.082C132.399 14.6133 132.539 15.2617 132.539 16.0273ZM146.11 14.8789H140.789V24.5H137.707V14.8789H133.746V11.832H137.707V7.69531H140.789V11.832H146.11V14.8789Z" fill="#000011"/>
</svg>
