<svg width="194" height="175" viewBox="0 0 194 175" fill="none" xmlns="http://www.w3.org/2000/svg">
<path fill-rule="evenodd" clip-rule="evenodd" d="M97 123.172C131.013 123.172 158.586 95.5989 158.586 61.5859C158.586 27.573 131.013 0 97 0C62.987 0 35.4141 27.573 35.4141 61.5859C35.4141 95.5989 62.987 123.172 97 123.172ZM105.309 49.4392C98.6439 37.674 97.0001 13.1874 97.0001 13.1874C97.0001 13.1874 95.3562 37.674 88.691 49.4392C85.0558 55.8559 76.1677 61.5856 76.1677 61.5856C76.1677 61.5856 85.0558 67.3153 88.691 73.732C95.3562 85.4972 97.0001 109.984 97.0001 109.984C97.0001 109.984 98.6439 85.4972 105.309 73.732C108.944 67.3153 117.832 61.5856 117.832 61.5856C117.832 61.5856 108.944 55.8559 105.309 49.4392Z" fill="#000011"/>
<path d="M31.4766 135.164L18.2148 162.176C18.0065 162.592 17.694 162.924 17.2773 163.172C16.8737 163.432 16.4245 163.562 15.9297 163.562C15.4479 163.562 14.9987 163.432 14.582 163.172C14.1784 162.924 13.8659 162.592 13.6445 162.176L0.402344 135.164H6.08594L15.9297 155.34L25.8125 135.164H31.4766ZM55.0898 149.051C55.0898 149.754 54.9661 150.516 54.7188 151.336C54.4714 152.143 54.0677 152.898 53.5078 153.602C52.9609 154.292 52.2383 154.871 51.3398 155.34C50.4544 155.809 49.3737 156.043 48.0977 156.043H38.9375V151.219H48.0977C48.7878 151.219 49.3216 151.01 49.6992 150.594C50.0768 150.164 50.2656 149.637 50.2656 149.012C50.2656 148.348 50.0508 147.827 49.6211 147.449C49.2044 147.072 48.6966 146.883 48.0977 146.883H38.9375C38.2474 146.883 37.7135 147.098 37.3359 147.527C36.9583 147.944 36.7695 148.465 36.7695 149.09V156.18C36.7695 156.857 36.9779 157.384 37.3945 157.762C37.8242 158.139 38.3516 158.328 38.9766 158.328H48.0977V163.172H38.9375C38.2344 163.172 37.4727 163.048 36.6523 162.801C35.8451 162.553 35.0898 162.156 34.3867 161.609C33.6966 161.049 33.1172 160.327 32.6484 159.441C32.1797 158.543 31.9453 157.456 31.9453 156.18V149.051C31.9453 148.348 32.069 147.592 32.3164 146.785C32.5638 145.965 32.9609 145.21 33.5078 144.519C34.0677 143.816 34.7904 143.23 35.6758 142.762C36.5742 142.293 37.6615 142.059 38.9375 142.059H48.0977C48.8008 142.059 49.556 142.182 50.3633 142.43C51.1836 142.677 51.9388 143.081 52.6289 143.641C53.332 144.187 53.918 144.91 54.3867 145.809C54.8555 146.694 55.0898 147.775 55.0898 149.051ZM81.2227 149.051C81.2227 149.754 81.099 150.516 80.8516 151.336C80.6042 152.143 80.2005 152.898 79.6406 153.602C79.0938 154.292 78.3711 154.871 77.4727 155.34C76.5872 155.809 75.5065 156.043 74.2305 156.043H65.0703V151.219H74.2305C74.9206 151.219 75.4544 151.01 75.832 150.594C76.2096 150.164 76.3984 149.637 76.3984 149.012C76.3984 148.348 76.1836 147.827 75.7539 147.449C75.3372 147.072 74.8294 146.883 74.2305 146.883H65.0703C64.3802 146.883 63.8464 147.098 63.4688 147.527C63.0911 147.944 62.9023 148.465 62.9023 149.09V156.18C62.9023 156.857 63.1107 157.384 63.5273 157.762C63.957 158.139 64.4844 158.328 65.1094 158.328H74.2305V163.172H65.0703C64.3672 163.172 63.6055 163.048 62.7852 162.801C61.9779 162.553 61.2227 162.156 60.5195 161.609C59.8294 161.049 59.25 160.327 58.7812 159.441C58.3125 158.543 58.0781 157.456 58.0781 156.18V149.051C58.0781 148.348 58.2018 147.592 58.4492 146.785C58.6966 145.965 59.0938 145.21 59.6406 144.519C60.2005 143.816 60.9232 143.23 61.8086 142.762C62.707 142.293 63.7943 142.059 65.0703 142.059H74.2305C74.9336 142.059 75.6888 142.182 76.4961 142.43C77.3164 142.677 78.0716 143.081 78.7617 143.641C79.4648 144.187 80.0508 144.91 80.5195 145.809C80.9883 146.694 81.2227 147.775 81.2227 149.051ZM107.805 156.043C107.805 156.915 107.694 157.703 107.473 158.406C107.251 159.096 106.958 159.708 106.594 160.242C106.229 160.763 105.806 161.212 105.324 161.59C104.842 161.954 104.335 162.254 103.801 162.488C103.28 162.723 102.746 162.898 102.199 163.016C101.665 163.12 101.158 163.172 100.676 163.172H91.5156C90.6432 163.172 89.862 163.061 89.1719 162.84C88.4818 162.618 87.8698 162.325 87.3359 161.961C86.8151 161.583 86.3659 161.154 85.9883 160.672C85.6237 160.19 85.3242 159.689 85.0898 159.168C84.8555 158.634 84.6797 158.1 84.5625 157.566C84.4583 157.019 84.4062 156.512 84.4062 156.043V149.168C84.4062 147.866 84.6406 146.766 85.1094 145.867C85.5911 144.956 86.1836 144.22 86.8867 143.66C87.6029 143.087 88.3776 142.677 89.2109 142.43C90.0443 142.182 90.8125 142.059 91.5156 142.059H100.676V147.137H91.5547C90.8776 147.137 90.3633 147.312 90.0117 147.664C89.6602 148.003 89.4844 148.504 89.4844 149.168V156.004C89.4844 156.694 89.6536 157.215 89.9922 157.566C90.3438 157.918 90.8516 158.094 91.5156 158.094H100.676C101.366 158.094 101.88 157.918 102.219 157.566C102.557 157.215 102.727 156.707 102.727 156.043V133.133H107.805V156.043ZM141.203 161.004C141.203 161.368 141.132 161.707 140.988 162.019C140.858 162.332 140.676 162.605 140.441 162.84C140.22 163.061 139.953 163.237 139.641 163.367C139.328 163.497 138.996 163.562 138.645 163.562C138.332 163.562 138.013 163.504 137.688 163.387C137.375 163.269 137.095 163.081 136.848 162.82L118.293 143.445V163.172H113.215V137.332C113.215 136.811 113.358 136.342 113.645 135.926C113.944 135.496 114.322 135.177 114.777 134.969C115.259 134.773 115.754 134.728 116.262 134.832C116.77 134.923 117.206 135.157 117.57 135.535L136.125 154.891V135.164H141.203V161.004ZM169.113 149.051C169.113 149.754 168.99 150.516 168.742 151.336C168.495 152.143 168.091 152.898 167.531 153.602C166.984 154.292 166.262 154.871 165.363 155.34C164.478 155.809 163.397 156.043 162.121 156.043H152.961V151.219H162.121C162.811 151.219 163.345 151.01 163.723 150.594C164.1 150.164 164.289 149.637 164.289 149.012C164.289 148.348 164.074 147.827 163.645 147.449C163.228 147.072 162.72 146.883 162.121 146.883H152.961C152.271 146.883 151.737 147.098 151.359 147.527C150.982 147.944 150.793 148.465 150.793 149.09V156.18C150.793 156.857 151.001 157.384 151.418 157.762C151.848 158.139 152.375 158.328 153 158.328H162.121V163.172H152.961C152.258 163.172 151.496 163.048 150.676 162.801C149.868 162.553 149.113 162.156 148.41 161.609C147.72 161.049 147.141 160.327 146.672 159.441C146.203 158.543 145.969 157.456 145.969 156.18V149.051C145.969 148.348 146.092 147.592 146.34 146.785C146.587 145.965 146.984 145.21 147.531 144.519C148.091 143.816 148.814 143.23 149.699 142.762C150.598 142.293 151.685 142.059 152.961 142.059H162.121C162.824 142.059 163.579 142.182 164.387 142.43C165.207 142.677 165.962 143.081 166.652 143.641C167.355 144.187 167.941 144.91 168.41 145.809C168.879 146.694 169.113 147.775 169.113 149.051ZM191.73 147.137H182.863V163.172H177.727V147.137H171.125V142.059H177.727V135.164H182.863V142.059H191.73V147.137Z" fill="#000011"/>
</svg>
